# xmcd
#
# Track frame offsets:
#	150
#	15216
#	29767
#	47510
#	67155
#	83179
#	105058
#	119414
#	135622
#	152792
#	166843
#	194041
#	208431
#	229335
#
# Disc length: 3192 seconds
#
# Revision: 1
# Processed by: cddbd v1.4PL0 Copyright (c) Steve Scherf et al.
# Submitted via: audiograbber 1.80
#
DISCID=c00c760e
DTITLE=Mathys Roets - Brug na Erens
DYEAR=1900
DGENRE=
TTITLE0=Seewind
TTITLE1=Dwergieman
TTITLE2=Hawe vir die Hart
TTITLE3=Bird on a Wire
TTITLE4=Vodka
TTITLE5=Alone Again
TTITLE6=Iets het Verander
TTITLE7=Jy is my Hart
TTITLE8=For Example
TTITLE9=Alleenheid
TTITLE10=Joan of Arch
TTITLE11=Wonder
TTITLE12=Heartland
TTITLE13=Gebed
EXTD=
EXTT0=
EXTT1=
EXTT2=
EXTT3=
EXTT4=
EXTT5=
EXTT6=
EXTT7=
EXTT8=
EXTT9=
EXTT10=
EXTT11=
EXTT12=
EXTT13=
PLAYORDER=
